<?xml version="1.0" encoding="UTF-8" standalone="no"?>
<!DOCTYPE svg PUBLIC "-//W3C//DTD SVG 1.1//EN"
 "http://www.w3.org/Graphics/SVG/1.1/DTD/svg11.dtd">
<!-- Generated by graphviz version 2.47.0 (20210316.0004)
 -->
<!-- Title: dependencies Pages: 1 -->
<svg width="504pt" height="211pt"
 viewBox="0.00 0.00 504.00 211.00" xmlns="http://www.w3.org/2000/svg" xmlns:xlink="http://www.w3.org/1999/xlink">
<g id="graph0" class="graph" transform="scale(1 1) rotate(0) translate(4 207)">
<title>dependencies</title>
<polygon fill="white" stroke="transparent" points="-4,4 -4,-207 500,-207 500,4 -4,4"/>
<text text-anchor="start" x="227.01" y="-42.4" font-family="Times-12" font-weight="bold" font-size="14.00">Legend</text>
<polygon fill="#ffffb3" stroke="transparent" points="14,-10 14,-30 34,-30 34,-10 14,-10"/>
<text text-anchor="start" x="37.63" y="-15.4" font-family="Times-12" font-size="14.00"> &#160;Declarations</text>
<polygon fill="#8dd3c7" stroke="transparent" points="127,-10 127,-30 147,-30 147,-10 127,-10"/>
<text text-anchor="start" x="150.73" y="-15.4" font-family="Times-12" font-size="14.00"> &#160;Module</text>
<polygon fill="#80b1d3" stroke="transparent" points="213,-10 213,-30 233,-30 233,-10 213,-10"/>
<text text-anchor="start" x="236.78" y="-15.4" font-family="Times-12" font-size="14.00"> &#160;Bootstrap</text>
<polygon fill="#fdb462" stroke="transparent" points="310,-10 310,-30 330,-30 330,-10 310,-10"/>
<text text-anchor="start" x="333.67" y="-15.4" font-family="Times-12" font-size="14.00"> &#160;Providers</text>
<polygon fill="#fb8072" stroke="transparent" points="406,-10 406,-30 426,-30 426,-10 406,-10"/>
<text text-anchor="start" x="429.73" y="-15.4" font-family="Times-12" font-size="14.00"> &#160;Exports</text>
<g id="clust1" class="cluster">
<title>cluster_AppModule</title>
<polygon fill="none" stroke="black" stroke-dasharray="1,5" points="8.5,-70 8.5,-195 487.5,-195 487.5,-70 8.5,-70"/>
</g>
<g id="clust6" class="cluster">
<title>cluster_AppModule_providers</title>
<polygon fill="none" stroke="black" points="349.5,-78 349.5,-130 479.5,-130 479.5,-78 349.5,-78"/>
</g>
<g id="clust3" class="cluster">
<title>cluster_AppModule_imports</title>
<polygon fill="none" stroke="black" points="16.5,-78 16.5,-130 341.5,-130 341.5,-78 16.5,-78"/>
</g>
<!-- AuthsModule -->
<g id="node1" class="node">
<title>AuthsModule</title>
<polygon fill="#8dd3c7" stroke="black" points="333.99,-122 330.99,-126 309.99,-126 306.99,-122 241.01,-122 241.01,-86 333.99,-86 333.99,-122"/>
<text text-anchor="middle" x="287.5" y="-99.8" font-family="Times,serif" font-size="14.00">AuthsModule</text>
</g>
<!-- AppModule -->
<g id="node4" class="node">
<title>AppModule</title>
<polygon fill="#8dd3c7" stroke="black" points="274.16,-187 271.16,-191 250.16,-191 247.16,-187 190.84,-187 190.84,-151 274.16,-151 274.16,-187"/>
<text text-anchor="middle" x="232.5" y="-164.8" font-family="Times,serif" font-size="14.00">AppModule</text>
</g>
<!-- AuthsModule&#45;&gt;AppModule -->
<g id="edge1" class="edge">
<title>AuthsModule&#45;&gt;AppModule</title>
<path fill="none" stroke="black" d="M257.67,-122.11C257.67,-122.11 257.67,-140.99 257.67,-140.99"/>
<polygon fill="black" stroke="black" points="254.17,-140.99 257.67,-150.99 261.17,-140.99 254.17,-140.99"/>
</g>
<!-- PostsModule -->
<g id="node2" class="node">
<title>PostsModule</title>
<polygon fill="#8dd3c7" stroke="black" points="223.11,-122 220.11,-126 199.11,-126 196.11,-122 133.89,-122 133.89,-86 223.11,-86 223.11,-122"/>
<text text-anchor="middle" x="178.5" y="-99.8" font-family="Times,serif" font-size="14.00">PostsModule</text>
</g>
<!-- PostsModule&#45;&gt;AppModule -->
<g id="edge2" class="edge">
<title>PostsModule&#45;&gt;AppModule</title>
<path fill="none" stroke="black" d="M206.86,-122.11C206.86,-122.11 206.86,-140.99 206.86,-140.99"/>
<polygon fill="black" stroke="black" points="203.36,-140.99 206.86,-150.99 210.36,-140.99 203.36,-140.99"/>
</g>
<!-- UsersModule -->
<g id="node3" class="node">
<title>UsersModule</title>
<polygon fill="#8dd3c7" stroke="black" points="116.42,-122 113.42,-126 92.42,-126 89.42,-122 24.58,-122 24.58,-86 116.42,-86 116.42,-122"/>
<text text-anchor="middle" x="70.5" y="-99.8" font-family="Times,serif" font-size="14.00">UsersModule</text>
</g>
<!-- UsersModule&#45;&gt;AppModule -->
<g id="edge3" class="edge">
<title>UsersModule&#45;&gt;AppModule</title>
<path fill="none" stroke="black" d="M70.5,-122.11C70.5,-141.34 70.5,-169 70.5,-169 70.5,-169 180.78,-169 180.78,-169"/>
<polygon fill="black" stroke="black" points="180.78,-172.5 190.78,-169 180.78,-165.5 180.78,-172.5"/>
</g>
<!-- AppService -->
<g id="node5" class="node">
<title>AppService</title>
<ellipse fill="#fdb462" stroke="black" cx="414.5" cy="-104" rx="56.74" ry="18"/>
<text text-anchor="middle" x="414.5" y="-99.8" font-family="Times,serif" font-size="14.00">AppService</text>
</g>
<!-- AppService&#45;&gt;AppModule -->
<g id="edge4" class="edge">
<title>AppService&#45;&gt;AppModule</title>
<path fill="none" stroke="black" d="M414.5,-122.11C414.5,-141.34 414.5,-169 414.5,-169 414.5,-169 284.25,-169 284.25,-169"/>
<polygon fill="black" stroke="black" points="284.25,-165.5 274.25,-169 284.25,-172.5 284.25,-165.5"/>
</g>
</g>
</svg>
