<?xml version="1.0" encoding="UTF-8" standalone="no"?>
<!DOCTYPE svg PUBLIC "-//W3C//DTD SVG 1.1//EN"
 "http://www.w3.org/Graphics/SVG/1.1/DTD/svg11.dtd">
<!-- Generated by graphviz version 2.47.0 (20210316.0004)
 -->
<!-- Title: dependencies Pages: 1 -->
<svg width="1122pt" height="287pt"
 viewBox="0.00 0.00 1122.00 287.00" xmlns="http://www.w3.org/2000/svg" xmlns:xlink="http://www.w3.org/1999/xlink">
<g id="graph0" class="graph" transform="scale(1 1) rotate(0) translate(4 283)">
<title>dependencies</title>
<polygon fill="white" stroke="transparent" points="-4,4 -4,-283 1118,-283 1118,4 -4,4"/>
<text text-anchor="start" x="536.01" y="-42.4" font-family="Times-12" font-weight="bold" font-size="14.00">Legend</text>
<polygon fill="#ffffb3" stroke="transparent" points="323,-10 323,-30 343,-30 343,-10 323,-10"/>
<text text-anchor="start" x="346.63" y="-15.4" font-family="Times-12" font-size="14.00"> &#160;Declarations</text>
<polygon fill="#8dd3c7" stroke="transparent" points="436,-10 436,-30 456,-30 456,-10 436,-10"/>
<text text-anchor="start" x="459.73" y="-15.4" font-family="Times-12" font-size="14.00"> &#160;Module</text>
<polygon fill="#80b1d3" stroke="transparent" points="522,-10 522,-30 542,-30 542,-10 522,-10"/>
<text text-anchor="start" x="545.78" y="-15.4" font-family="Times-12" font-size="14.00"> &#160;Bootstrap</text>
<polygon fill="#fdb462" stroke="transparent" points="619,-10 619,-30 639,-30 639,-10 619,-10"/>
<text text-anchor="start" x="642.67" y="-15.4" font-family="Times-12" font-size="14.00"> &#160;Providers</text>
<polygon fill="#fb8072" stroke="transparent" points="715,-10 715,-30 735,-30 735,-10 715,-10"/>
<text text-anchor="start" x="738.73" y="-15.4" font-family="Times-12" font-size="14.00"> &#160;Exports</text>
<g id="clust1" class="cluster">
<title>cluster_AppModule</title>
<polygon fill="none" stroke="black" stroke-dasharray="1,5" points="168,-70 168,-271 540,-271 540,-70 168,-70"/>
</g>
<g id="clust3" class="cluster">
<title>cluster_AppModule_imports</title>
<polygon fill="none" stroke="black" points="314,-78 314,-206 532,-206 532,-78 314,-78"/>
</g>
<g id="clust6" class="cluster">
<title>cluster_AppModule_providers</title>
<polygon fill="none" stroke="black" points="176,-154 176,-206 306,-206 306,-154 176,-154"/>
</g>
<g id="clust7" class="cluster">
<title>cluster_AuthsModule</title>
<polygon fill="none" stroke="black" stroke-dasharray="1,5" points="548,-146 548,-214 824,-214 824,-146 548,-146"/>
</g>
<g id="clust10" class="cluster">
<title>cluster_AuthsModule_exports</title>
<polygon fill="none" stroke="black" points="706,-154 706,-206 816,-206 816,-154 706,-154"/>
</g>
<g id="clust12" class="cluster">
<title>cluster_AuthsModule_providers</title>
<polygon fill="none" stroke="black" points="556,-154 556,-206 698,-206 698,-154 556,-154"/>
</g>
<g id="clust13" class="cluster">
<title>cluster_PostsModule</title>
<polygon fill="none" stroke="black" stroke-dasharray="1,5" points="8,-70 8,-138 160,-138 160,-70 8,-70"/>
</g>
<g id="clust18" class="cluster">
<title>cluster_PostsModule_providers</title>
<polygon fill="none" stroke="black" points="16,-78 16,-130 152,-130 152,-78 16,-78"/>
</g>
<g id="clust19" class="cluster">
<title>cluster_UsersModule</title>
<polygon fill="none" stroke="black" stroke-dasharray="1,5" points="832,-146 832,-214 1106,-214 1106,-146 832,-146"/>
</g>
<g id="clust22" class="cluster">
<title>cluster_UsersModule_exports</title>
<polygon fill="none" stroke="black" points="988,-154 988,-206 1098,-206 1098,-154 988,-154"/>
</g>
<g id="clust24" class="cluster">
<title>cluster_UsersModule_providers</title>
<polygon fill="none" stroke="black" points="840,-154 840,-206 980,-206 980,-154 840,-154"/>
</g>
<!-- AuthsModule -->
<g id="node1" class="node">
<title>AuthsModule</title>
<polygon fill="#8dd3c7" stroke="black" points="414.49,-122 411.49,-126 390.49,-126 387.49,-122 321.51,-122 321.51,-86 414.49,-86 414.49,-122"/>
<text text-anchor="middle" x="368" y="-99.8" font-family="Times,serif" font-size="14.00">AuthsModule</text>
</g>
<!-- AppModule -->
<g id="node4" class="node">
<title>AppModule</title>
<polygon fill="#8dd3c7" stroke="black" points="440.66,-263 437.66,-267 416.66,-267 413.66,-263 357.34,-263 357.34,-227 440.66,-227 440.66,-263"/>
<text text-anchor="middle" x="399" y="-240.8" font-family="Times,serif" font-size="14.00">AppModule</text>
</g>
<!-- AuthsModule&#45;&gt;AppModule -->
<g id="edge1" class="edge">
<title>AuthsModule&#45;&gt;AppModule</title>
<path fill="none" stroke="black" d="M414.82,-110C418.26,-110 420.43,-110 420.43,-110 420.43,-110 420.43,-216.79 420.43,-216.79"/>
<polygon fill="black" stroke="black" points="416.93,-216.79 420.43,-226.79 423.93,-216.79 416.93,-216.79"/>
</g>
<!-- AuthsService  -->
<g id="node6" class="node">
<title>AuthsService </title>
<polygon fill="#fb8072" stroke="black" points="808.42,-198 713.58,-198 713.58,-162 808.42,-162 808.42,-198"/>
<text text-anchor="middle" x="761" y="-175.8" font-family="Times,serif" font-size="14.00">AuthsService </text>
</g>
<!-- AuthsModule&#45;&gt;AuthsService  -->
<g id="edge5" class="edge">
<title>AuthsModule&#45;&gt;AuthsService </title>
<path fill="none" stroke="black" stroke-dasharray="5,2" d="M367,-122.11C367,-131.9 367,-142 367,-142 367,-142 761,-142 761,-142 761,-142 761,-151.89 761,-151.89"/>
<polygon fill="black" stroke="black" points="757.5,-151.89 761,-161.89 764.5,-151.89 757.5,-151.89"/>
</g>
<!-- PostsModule -->
<g id="node2" class="node">
<title>PostsModule</title>
<polygon fill="#8dd3c7" stroke="black" points="411.61,-198 408.61,-202 387.61,-202 384.61,-198 322.39,-198 322.39,-162 411.61,-162 411.61,-198"/>
<text text-anchor="middle" x="367" y="-175.8" font-family="Times,serif" font-size="14.00">PostsModule</text>
</g>
<!-- PostsModule&#45;&gt;AppModule -->
<g id="edge2" class="edge">
<title>PostsModule&#45;&gt;AppModule</title>
<path fill="none" stroke="black" d="M384.36,-198.11C384.36,-198.11 384.36,-216.99 384.36,-216.99"/>
<polygon fill="black" stroke="black" points="380.86,-216.99 384.36,-226.99 387.86,-216.99 380.86,-216.99"/>
</g>
<!-- UsersModule -->
<g id="node3" class="node">
<title>UsersModule</title>
<polygon fill="#8dd3c7" stroke="black" points="523.92,-122 520.92,-126 499.92,-126 496.92,-122 432.08,-122 432.08,-86 523.92,-86 523.92,-122"/>
<text text-anchor="middle" x="478" y="-99.8" font-family="Times,serif" font-size="14.00">UsersModule</text>
</g>
<!-- UsersModule&#45;&gt;PostsModule -->
<g id="edge7" class="edge">
<title>UsersModule&#45;&gt;PostsModule</title>
<path fill="none" stroke="black" d="M435.14,-122.2C435.14,-146.36 435.14,-186 435.14,-186 435.14,-186 421.69,-186 421.69,-186"/>
<polygon fill="black" stroke="black" points="421.69,-182.5 411.69,-186 421.69,-189.5 421.69,-182.5"/>
</g>
<!-- UsersModule&#45;&gt;AppModule -->
<g id="edge3" class="edge">
<title>UsersModule&#45;&gt;AppModule</title>
<path fill="none" stroke="black" d="M437.98,-122.14C437.98,-122.14 437.98,-216.93 437.98,-216.93"/>
<polygon fill="black" stroke="black" points="434.48,-216.92 437.98,-226.93 441.48,-216.93 434.48,-216.92"/>
</g>
<!-- UsersService  -->
<g id="node9" class="node">
<title>UsersService </title>
<polygon fill="#fb8072" stroke="black" points="1089.85,-198 996.15,-198 996.15,-162 1089.85,-162 1089.85,-198"/>
<text text-anchor="middle" x="1043" y="-175.8" font-family="Times,serif" font-size="14.00">UsersService </text>
</g>
<!-- UsersModule&#45;&gt;UsersService  -->
<g id="edge9" class="edge">
<title>UsersModule&#45;&gt;UsersService </title>
<path fill="none" stroke="black" stroke-dasharray="5,2" d="M523.76,-98C658.26,-98 1043,-98 1043,-98 1043,-98 1043,-151.8 1043,-151.8"/>
<polygon fill="black" stroke="black" points="1039.5,-151.8 1043,-161.8 1046.5,-151.8 1039.5,-151.8"/>
</g>
<!-- AppService -->
<g id="node5" class="node">
<title>AppService</title>
<ellipse fill="#fdb462" stroke="black" cx="241" cy="-180" rx="56.74" ry="18"/>
<text text-anchor="middle" x="241" y="-175.8" font-family="Times,serif" font-size="14.00">AppService</text>
</g>
<!-- AppService&#45;&gt;AppModule -->
<g id="edge4" class="edge">
<title>AppService&#45;&gt;AppModule</title>
<path fill="none" stroke="black" d="M241,-198.11C241,-217.34 241,-245 241,-245 241,-245 347.07,-245 347.07,-245"/>
<polygon fill="black" stroke="black" points="347.07,-248.5 357.07,-245 347.07,-241.5 347.07,-248.5"/>
</g>
<!-- AuthsService -->
<g id="node7" class="node">
<title>AuthsService</title>
<ellipse fill="#fdb462" stroke="black" cx="627" cy="-180" rx="63.12" ry="18"/>
<text text-anchor="middle" x="627" y="-175.8" font-family="Times,serif" font-size="14.00">AuthsService</text>
</g>
<!-- AuthsService&#45;&gt;AuthsModule -->
<g id="edge6" class="edge">
<title>AuthsService&#45;&gt;AuthsModule</title>
<path fill="none" stroke="black" d="M567.34,-174C508.2,-174 426.36,-174 426.36,-174 426.36,-174 426.36,-98 426.36,-98 426.36,-98 424.55,-98 424.55,-98"/>
<polygon fill="black" stroke="black" points="424.55,-94.5 414.55,-98 424.55,-101.5 424.55,-94.5"/>
</g>
<!-- PostsService -->
<g id="node8" class="node">
<title>PostsService</title>
<ellipse fill="#fdb462" stroke="black" cx="84" cy="-104" rx="60.27" ry="18"/>
<text text-anchor="middle" x="84" y="-99.8" font-family="Times,serif" font-size="14.00">PostsService</text>
</g>
<!-- PostsService&#45;&gt;PostsModule -->
<g id="edge8" class="edge">
<title>PostsService&#45;&gt;PostsModule</title>
<path fill="none" stroke="black" d="M144.45,-104C211.26,-104 309.56,-104 309.56,-104 309.56,-104 309.56,-180 309.56,-180 309.56,-180 312.31,-180 312.31,-180"/>
<polygon fill="black" stroke="black" points="312.31,-183.5 322.31,-180 312.31,-176.5 312.31,-183.5"/>
</g>
<!-- UsersService -->
<g id="node10" class="node">
<title>UsersService</title>
<ellipse fill="#fdb462" stroke="black" cx="910" cy="-180" rx="61.95" ry="18"/>
<text text-anchor="middle" x="910" y="-175.8" font-family="Times,serif" font-size="14.00">UsersService</text>
</g>
<!-- UsersService&#45;&gt;UsersModule -->
<g id="edge10" class="edge">
<title>UsersService&#45;&gt;UsersModule</title>
<path fill="none" stroke="black" d="M910,-161.97C910,-141.23 910,-110 910,-110 910,-110 533.82,-110 533.82,-110"/>
<polygon fill="black" stroke="black" points="533.82,-106.5 523.82,-110 533.82,-113.5 533.82,-106.5"/>
</g>
</g>
</svg>
